<svg width="64" height="64" viewBox="0 0 64 64" fill="none" xmlns="http://www.w3.org/2000/svg">
<path d="M0 64L0 0H48L64 16V64H0Z" fill="#111111"/>
<path d="M45.48 38.331L27.763 31.311V31.308L45.568 21.805C45.7063 21.7307 45.8205 21.6184 45.897 21.4812C45.9735 21.3441 46.0092 21.1879 45.9997 21.0312C45.9902 20.8745 45.9361 20.7237 45.8436 20.5968C45.7512 20.4699 45.6243 20.3721 45.478 20.315L36.959 17C36.8522 16.9596 36.7381 16.9423 36.6242 16.9492C36.5103 16.9561 36.3991 16.987 36.298 17.04L21.48 24.855C20.4265 25.4152 19.5457 26.2522 18.9325 27.2758C18.3193 28.2993 17.9969 29.4708 18 30.664V35.16C18 35.2931 18.0323 35.4241 18.094 35.542C18.1429 35.6367 18.2101 35.7208 18.2918 35.7893C18.3734 35.8579 18.4679 35.9096 18.5696 35.9414C18.6713 35.9732 18.7784 35.9845 18.8845 35.9746C18.9907 35.9648 19.0938 35.934 19.188 35.884L25.838 32.334L34.672 35.908L21.481 42.87C20.4274 43.43 19.5466 44.2667 18.9332 45.2901C18.3198 46.3136 17.9972 47.4849 18 48.678V53.176C18.0003 53.3109 18.0325 53.4439 18.094 53.564C18.143 53.6586 18.2103 53.7426 18.2919 53.8111C18.3736 53.8796 18.4679 53.9313 18.5696 53.9631C18.6713 53.995 18.7783 54.0065 18.8844 53.9968C18.9905 53.9872 19.0937 53.9567 19.188 53.907L45.569 39.82C45.7067 39.7453 45.8202 39.6328 45.8963 39.4958C45.9723 39.3589 46.0077 39.2031 45.9984 39.0467C45.9891 38.8903 45.9353 38.7398 45.8435 38.6129C45.7517 38.4859 45.6256 38.3878 45.48 38.33V38.331ZM26.502 13.041C26.4098 12.8664 26.2568 12.7315 26.072 12.662L19.092 10.051C18.9919 10.0139 18.8855 9.99712 18.7788 10.0015C18.6722 10.0058 18.5675 10.0313 18.4708 10.0764C18.374 10.1215 18.2872 10.1854 18.2153 10.2643C18.1435 10.3431 18.0879 10.4355 18.052 10.536C18.019 10.6267 18.002 10.7225 18.002 10.819V17.251C18.0016 17.3915 18.0376 17.5298 18.1066 17.6522C18.1755 17.7747 18.275 17.8772 18.3954 17.9497C18.5158 18.0222 18.6529 18.0623 18.7934 18.066C18.9339 18.0698 19.0729 18.037 19.197 17.971L26.174 14.151C26.364 14.0466 26.505 13.8714 26.5665 13.6635C26.6279 13.4556 26.6047 13.2319 26.502 13.041V13.041Z" fill="white"/>
</svg>
