<svg width="29" height="45" viewBox="0 0 29 45" fill="none" xmlns="http://www.w3.org/2000/svg">
<g clip-path="url(#clip0_102_2)">
<path d="M10.112 21.797L28.462 28.977C28.895 29.144 29.11 29.629 28.944 30.061C28.871 30.251 28.732 30.411 28.554 30.501L1.23 44.908C0.82 45.12 0.313 44.967 0.097 44.557C0.033 44.43 0 44.3 0 44.16L0 39.56C0 37.063 1.39 34.774 3.605 33.62L17.267 26.5L8.117 22.845L1.23 26.475C0.82 26.689 0.313 26.535 0.097 26.125C0.033 26.005 0 25.869 0 25.735L0 21.135C0 18.638 1.39 16.349 3.605 15.195L18.95 7.20001C19.16 7.09001 19.412 7.07601 19.636 7.16001L28.46 10.55C28.894 10.718 29.11 11.2 28.943 11.634C28.87 11.824 28.731 11.979 28.553 12.074L10.111 21.794L10.112 21.797ZM8.36 2.72301C8.55 2.79301 8.71 2.93101 8.806 3.11001C9.026 3.51601 8.876 4.02401 8.466 4.24501L1.24 8.15201C1.117 8.21901 0.98 8.25201 0.84 8.25201C0.377 8.25201 0.002 7.87801 0.002 7.41601L0.002 0.838009C0.002 0.738009 0.02 0.640008 0.054 0.548008C0.214 0.113008 0.697 -0.107994 1.131 0.0520058L8.361 2.72201L8.36 2.72301Z" fill="white"/>
</g>
<defs>
<clipPath id="clip0_102_2">
<rect width="45" height="29" fill="white" transform="translate(0 45) rotate(-90)"/>
</clipPath>
</defs>
</svg>
